<?xml version="1.0" encoding="utf-8"?>
<!-- Generator: Adobe Illustrator 19.2.1, SVG Export Plug-In . SVG Version: 6.00 Build 0)  -->
<svg version="1.0" id="Layer_1" xmlns="http://www.w3.org/2000/svg" xmlns:xlink="http://www.w3.org/1999/xlink" x="0px" y="0px"
	 viewBox="0 0 200 200" style="enable-background:new 0 0 200 200;" xml:space="preserve">
<style type="text/css">
	.st0{display:none;fill:#333333;}
	.st1{fill:none;stroke:#000000;stroke-width:12;stroke-linecap:round;stroke-miterlimit:10;}
	.st2{fill:#FFFFFF;}
	.st3{fill:none;stroke:#FFFFFF;stroke-width:12;stroke-miterlimit:10;}
	.st4{fill:none;stroke:#FFFFFF;stroke-width:12;stroke-linecap:round;stroke-miterlimit:10;}
	.st5{fill:none;stroke:#3FA9F5;stroke-width:6.9735;stroke-miterlimit:10;}
	.st6{fill:none;stroke:#000000;stroke-width:6.9735;stroke-miterlimit:10;}
	.st7{fill:none;stroke:#000000;stroke-width:19.0838;stroke-miterlimit:10;}
	.st8{fill:none;stroke:#FFFFFF;stroke-width:6.9735;stroke-miterlimit:10;}
</style>
<rect x="-40" y="-40" class="st0" width="520" height="520"/>
<g>
	<g>
		<path class="st2" d="M10.3,70v60h-25.4V70H10.3 M20.3,60h-45.4v80h45.4V60L20.3,60z"/>
	</g>
	<g>
		<path class="st2" d="M215.2,69.9v60.1h-25.5V69.9H215.2 M225.1,60h-45.4v80h45.4V60L225.1,60z"/>
	</g>
	<g>
		<path class="st2" d="M158.7,57v86H41.3V57H158.7 M170.7,45H29.3v110h141.5V45L170.7,45z"/>
	</g>
	<circle class="st2" cx="65.7" cy="83" r="11.2"/>
	<polygon class="st2" points="54.5,134 145.5,134 133.2,92.8 124.7,95.6 116,80.3 90.3,116.4 76.6,109.4 	"/>
</g>
</svg>
