<?xml version="1.0" encoding="utf-8"?>
<!-- Generator: Adobe Illustrator 19.2.1, SVG Export Plug-In . SVG Version: 6.00 Build 0)  -->
<svg version="1.0" id="Layer_1" xmlns="http://www.w3.org/2000/svg" xmlns:xlink="http://www.w3.org/1999/xlink" x="0px" y="0px"
	 viewBox="0 0 200 200" style="enable-background:new 0 0 200 200;" xml:space="preserve">
<style type="text/css">
	.st0{display:none;fill:#333333;}
	.st1{fill:none;stroke:#000000;stroke-width:12;stroke-linecap:round;stroke-miterlimit:10;}
	.st2{fill:#FFFFFF;}
	.st3{fill:none;stroke:#FFFFFF;stroke-width:12;stroke-miterlimit:10;}
	.st4{fill:none;stroke:#FFFFFF;stroke-width:12;stroke-linecap:round;stroke-miterlimit:10;}
	.st5{fill:none;stroke:#3FA9F5;stroke-width:6.9735;stroke-miterlimit:10;}
	.st6{fill:none;stroke:#000000;stroke-width:6.9735;stroke-miterlimit:10;}
	.st7{fill:none;stroke:#000000;stroke-width:19.0838;stroke-miterlimit:10;}
	.st8{fill:none;stroke:#FFFFFF;stroke-width:6.9735;stroke-miterlimit:10;}
</style>
<rect x="-280" y="-280" class="st0" width="520" height="520"/>
<g>
	<path class="st2" d="M114.3,153.2c-0.2,2.3-0.4,4.7-0.6,7.2c0,0.2-0.2,0.5-0.4,0.7c-6.5,4.4-13.4,7.3-21.4,7.1
		c-3.8-0.1-7.3-1.2-10.3-3.7c-3.3-2.9-4.7-6.7-5-11c-0.5-6.8,1.2-13.2,3.8-19.4c2.7-6.3,5.6-12.4,8.3-18.6
		c2.3-5.2,4.3-10.6,5.3-16.2c0.6-3.1,0.8-6.2,0.1-9.3c-0.9-4.3-3.9-6.4-8.2-5.9c-1.6,0.2-3.2,0.7-4.8,1.1c-0.2,0.1-0.5,0.1-0.9,0.3
		c0.1-1.5,0.2-2.8,0.4-4.1c0-0.2,0.1-0.3,0.1-0.5c-0.2-2.1,0.9-3.2,2.5-4.3c4.8-3.1,9.9-5.7,15.6-6.5c3.8-0.6,7.6-0.3,11.2,1.3
		c4.9,2.1,7.6,5.9,8.4,11.1c0.8,5.3,0,10.5-1.3,15.7c-2.3,9.3-6,18-9.9,26.7c-1.9,4.3-4.2,8.5-5.5,13.1c-0.8,3.1-1.5,6.1-1.1,9.3
		c0.4,4.2,3.1,6.8,7.3,6.8C110,153.9,112.1,153.4,114.3,153.2z"/>
	<path class="st2" d="M123.5,44.7c0,7.1-5.8,12.8-12.9,12.8c-7,0-12.7-5.8-12.7-12.8c0-7.1,5.8-12.8,12.9-12.8
		C117.8,31.9,123.5,37.6,123.5,44.7z"/>
</g>
</svg>
