<?xml version="1.0" encoding="utf-8"?>
<!-- Generator: Adobe Illustrator 19.2.1, SVG Export Plug-In . SVG Version: 6.00 Build 0)  -->
<svg version="1.0" id="Layer_1" xmlns="http://www.w3.org/2000/svg" xmlns:xlink="http://www.w3.org/1999/xlink" x="0px" y="0px"
	 viewBox="0 0 200 200" style="enable-background:new 0 0 200 200;" xml:space="preserve">
<style type="text/css">
	.st0{display:none;fill:#333333;}
	.st1{fill:none;stroke:#000000;stroke-width:12;stroke-linecap:round;stroke-miterlimit:10;}
	.st2{fill:#FFFFFF;}
	.st3{fill:none;stroke:#FFFFFF;stroke-width:12;stroke-miterlimit:10;}
	.st4{fill:none;stroke:#FFFFFF;stroke-width:12;stroke-linecap:round;stroke-miterlimit:10;}
	.st5{fill:none;stroke:#3FA9F5;stroke-width:6.9735;stroke-miterlimit:10;}
	.st6{fill:none;stroke:#000000;stroke-width:6.9735;stroke-miterlimit:10;}
	.st7{fill:none;stroke:#000000;stroke-width:19.0838;stroke-miterlimit:10;}
	.st8{fill:none;stroke:#FFFFFF;stroke-width:6.9735;stroke-miterlimit:10;}
</style>
<rect x="-40" y="-280" class="st0" width="520" height="520"/>
<g>
	<path class="st4" d="M112.3,82.9l5.2,5.2c8.2,8.2,8.2,21.7,0,29.9l-36.8,36.8c-8.2,8.2-21.7,8.2-29.9,0l-5.5-5.5
		c-8.2-8.2-8.2-21.7,0-29.9l11.6-11.6"/>
	<path class="st4" d="M87.8,117.1l-5.2-5.2c-8.2-8.2-8.2-21.7,0-29.9l36.8-36.8c8.2-8.2,21.7-8.2,29.9,0l5.5,5.5
		c8.2,8.2,8.2,21.7,0,29.9l-11.6,11.6"/>
</g>
</svg>
