<?xml version="1.0" encoding="utf-8"?>
<!-- Generator: Adobe Illustrator 21.0.0, SVG Export Plug-In . SVG Version: 6.00 Build 0)  -->
<svg version="1.1" id="Layer_1" xmlns="http://www.w3.org/2000/svg" xmlns:xlink="http://www.w3.org/1999/xlink" x="0px" y="0px"
	 viewBox="0 0 329.6 329.7" style="enable-background:new 0 0 329.6 329.7;" xml:space="preserve">
<style type="text/css">
	.st0{fill:#FFFFFF;}
</style>
<path class="st0" d="M0,0.1c90.2,0,180.1,0,270.6,0C200.5,110.3,130.7,219.9,60.8,329.7c-20.2,0-40.3,0-60.8,0C0,219.8,0,110,0,0.1z
	 M30.5,59.1c1.2,0.1,2,0.2,2.8,0.2c52.9,0,105.8,0,158.7-0.1c1.4,0,3.4-0.9,4.1-2c4-5.9,7.8-12,11.6-18c1.8-2.8,3.5-5.7,5.3-8.6
	c-61,0-121.7,0-182.6,0C30.5,40.2,30.5,49.5,30.5,59.1z M30.5,119c1.1,0.1,1.8,0.3,2.5,0.3c40.6,0,81.1,0,121.7-0.1
	c1.2,0,2.7-0.9,3.4-1.9c3.4-5.1,6.7-10.3,9.9-15.5c2.3-3.6,4.5-7.2,7-11.2c-48.4,0-96.4,0-144.6,0C30.5,100.2,30.5,109.4,30.5,119z
	 M30.5,179.1c29.7,0,58.9,0,88.3,0c6-9.5,12-18.9,18-28.5c-35.8,0-70.9,0-106.3,0C30.5,160.2,30.5,169.4,30.5,179.1z M98.7,210.6
	c-23,0-45.4,0-68,0c0,9.6,0,19,0,28.5c1.4,0.1,2.6,0.2,3.7,0.2c13.9,0,27.8-0.1,41.7,0.1c3.2,0,5.3-0.6,6.7-3.8
	c1-2.4,2.9-4.4,4.3-6.7C90.9,223,94.6,217,98.7,210.6z M42.5,299.1c6.1-9.6,12-18.9,18.1-28.5c-10.3,0-20.1,0-30,0
	c0,9.7,0,19,0,28.5C34.8,299.1,38.5,299.1,42.5,299.1z"/>
<path class="st0" d="M299.1,299.3c0-69.9,0-139.1,0-209.3c-16.9,0-33.6,0-51.4,0C267.2,59.4,286,29.8,305,0c8,0,16.2,0,24.7,0
	c0,109.9,0,219.6,0,329.5c-77.9,0-155.7,0-234.3,0c2.4-3.7,4.3-6.8,6.3-10c3.8-6,7.6-12.1,11.6-18c0.7-1.1,2.3-1.7,3.6-2.1
	c1-0.3,2.1-0.1,3.2-0.1c58.2,0,116.5,0,174.7,0C296.1,299.3,297.4,299.3,299.1,299.3z"/>
<path class="st0" d="M269.9,209.8c-32.8,0-65.2,0-98.3,0c2.7-4.4,4.8-8,7.1-11.6c7.8-12.2,15.6-24.3,23.4-36.5
	c8.5-13.4,17-26.8,25.6-40.1c0.7-1,2.2-2,3.4-2c12.2-0.1,24.5-0.1,36.7-0.1c0.6,0,1.1,0.2,2,0.4
	C269.9,149.7,269.9,179.7,269.9,209.8z"/>
<path class="st0" d="M133.6,269.9c2.3-3.9,4-7,5.9-10.1c3.7-6,7.4-12,11.4-17.8c0.9-1.3,3-2.6,4.6-2.6c37.1-0.1,74.3-0.1,111.4-0.1
	c0.9,0,1.8,0.2,3,0.3c0,10.1,0,20,0,30.3C224.9,269.9,179.8,269.9,133.6,269.9z"/>
</svg>
