<?xml version="1.0" encoding="utf-8"?>
<!-- Generator: Adobe Illustrator 19.2.1, SVG Export Plug-In . SVG Version: 6.00 Build 0)  -->
<svg version="1.0" id="Layer_1" xmlns="http://www.w3.org/2000/svg" xmlns:xlink="http://www.w3.org/1999/xlink" x="0px" y="0px"
	 viewBox="0 0 649.1 119.5" style="enable-background:new 0 0 649.1 119.5;" xml:space="preserve">
<style type="text/css">
	.st0{display:none;fill:#333333;}
	.st1{fill:none;stroke:#000000;stroke-width:12;stroke-linecap:round;stroke-miterlimit:10;}
	.st2{fill:#FFFFFF;}
	.st3{fill:none;stroke:#FFFFFF;stroke-width:12;stroke-miterlimit:10;}
	.st4{fill:none;stroke:#FFFFFF;stroke-width:12;stroke-linecap:round;stroke-miterlimit:10;}
	.st5{fill:none;stroke:#3FA9F5;stroke-width:6.9735;stroke-miterlimit:10;}
	.st6{fill:none;stroke:#000000;stroke-width:6.9735;stroke-miterlimit:10;}
	.st7{fill:none;stroke:#000000;stroke-width:19.0838;stroke-miterlimit:10;}
	.st8{fill:none;stroke:#FFFFFF;stroke-width:6.9735;stroke-miterlimit:10;}
</style>
<rect x="-28.7" y="-24.5" class="st0" width="704.6" height="171"/>
<g>
	<polyline class="st5" points="629.7,66.2 629.7,98.9 597,98.9 	"/>
	<polyline class="st8" points="597,20.6 629.7,20.6 629.7,53.3 	"/>
	<polyline class="st8" points="584.3,98.9 551.5,98.9 551.5,66.2 	"/>
	<polyline class="st8" points="551.5,53.3 551.5,20.6 584.3,20.6 	"/>
</g>
<g>
	<path class="st2" d="M54.5,38.7v4.7H32.4v13.4h19.4v4.7H32.4v19.3h-5.6V38.7H54.5z"/>
	<path class="st2" d="M65.5,51.5c0.8-2.7,2.1-5,3.8-7.1c1.7-2,3.8-3.7,6.3-4.9c2.5-1.2,5.5-1.8,8.8-1.8c3.3,0,6.3,0.6,8.8,1.8
		c2.5,1.2,4.6,2.9,6.3,4.9c1.7,2,3,4.4,3.8,7.1c0.8,2.7,1.3,5.4,1.3,8.3c0,2.9-0.4,5.6-1.3,8.3c-0.8,2.7-2.1,5-3.8,7.1
		c-1.7,2-3.8,3.7-6.3,4.9c-2.5,1.2-5.5,1.8-8.8,1.8c-3.3,0-6.3-0.6-8.8-1.8c-2.5-1.2-4.6-2.8-6.3-4.9c-1.7-2-3-4.4-3.8-7.1
		c-0.8-2.7-1.3-5.4-1.3-8.3C64.2,56.9,64.7,54.1,65.5,51.5z M70.7,66.1c0.6,2.1,1.4,3.9,2.6,5.6s2.7,3,4.5,4c1.9,1,4.1,1.5,6.6,1.5
		c2.6,0,4.8-0.5,6.6-1.5c1.9-1,3.4-2.3,4.5-4s2-3.5,2.6-5.6c0.6-2.1,0.8-4.2,0.8-6.3c0-2.1-0.3-4.2-0.8-6.3
		c-0.6-2.1-1.4-3.9-2.6-5.6c-1.2-1.7-2.7-3-4.5-4c-1.9-1-4.1-1.5-6.6-1.5c-2.6,0-4.8,0.5-6.6,1.5c-1.9,1-3.4,2.3-4.5,4
		c-1.2,1.7-2,3.5-2.6,5.6c-0.6,2.1-0.8,4.2-0.8,6.3C69.8,61.9,70.1,64,70.7,66.1z"/>
	<path class="st2" d="M146.7,77.8c-2.9,2.7-7,4-12.3,4c-5.4,0-9.7-1.3-12.7-3.9c-3.1-2.6-4.6-6.7-4.6-12.3V38.7h5.6v26.9
		c0,3.8,1,6.6,3,8.6s4.9,2.9,8.7,2.9c3.6,0,6.3-1,8.2-2.9c1.9-1.9,2.8-4.8,2.8-8.6V38.7h5.6v26.9C151,71,149.6,75.1,146.7,77.8z"/>
	<path class="st2" d="M185.8,38.7c4,0,7.2,1,9.4,3c2.3,2,3.4,4.7,3.4,8.1c0,2.6-0.6,4.8-1.7,6.7c-1.2,1.9-3,3.2-5.6,4v0.1
		c1.2,0.2,2.2,0.6,3,1.2c0.8,0.6,1.4,1.2,1.8,2c0.5,0.8,0.8,1.6,1,2.6c0.2,0.9,0.4,1.9,0.5,3c0.1,1,0.1,2.1,0.2,3.1
		c0,1.1,0.1,2.1,0.3,3.1c0.2,1,0.4,2,0.7,2.9c0.3,0.9,0.7,1.7,1.3,2.5h-6.3c-0.4-0.4-0.7-1-0.8-1.8c-0.1-0.7-0.2-1.6-0.3-2.5
		c0-0.9-0.1-1.9-0.1-3c0-1.1-0.2-2.1-0.4-3.1c-0.2-1-0.4-2-0.6-2.9c-0.2-0.9-0.6-1.7-1.1-2.4c-0.5-0.7-1.2-1.2-2-1.7
		c-0.8-0.4-1.9-0.6-3.3-0.6h-13.7v18h-5.6V38.7H185.8z M186.9,57.8c1.2-0.2,2.2-0.6,3.1-1.2c0.9-0.6,1.6-1.3,2.1-2.3
		c0.5-1,0.8-2.2,0.8-3.8c0-2.1-0.6-3.9-1.8-5.2c-1.2-1.3-3.1-2-5.7-2h-13.9v14.7h11.7C184.5,58.1,185.8,58,186.9,57.8z"/>
	<path class="st2" d="M237.8,44.7c-2.1-1.5-4.7-2.2-7.6-2.2c-2.5,0-4.7,0.5-6.5,1.4c-1.8,0.9-3.3,2.2-4.4,3.8
		c-1.2,1.6-2,3.4-2.6,5.5c-0.6,2-0.8,4.2-0.8,6.4c0,2.4,0.3,4.7,0.8,6.8c0.6,2.1,1.4,4,2.6,5.6c1.2,1.6,2.6,2.9,4.5,3.8
		c1.8,0.9,4,1.4,6.5,1.4c1.8,0,3.5-0.3,4.9-0.9c1.4-0.6,2.7-1.5,3.7-2.5c1-1.1,1.9-2.4,2.5-3.9c0.6-1.5,0.9-3.1,1.1-4.8h5.6
		c-0.6,5.3-2.4,9.4-5.5,12.4c-3.1,3-7.4,4.4-12.8,4.4c-3.3,0-6.1-0.6-8.6-1.7s-4.5-2.7-6.1-4.6c-1.6-2-2.8-4.3-3.6-7
		c-0.8-2.7-1.2-5.6-1.2-8.6c0-3.1,0.4-6,1.3-8.7c0.9-2.7,2.1-5,3.8-7.1c1.7-2,3.8-3.6,6.3-4.8c2.5-1.2,5.4-1.7,8.6-1.7
		c2.2,0,4.3,0.3,6.3,0.9c2,0.6,3.7,1.5,5.3,2.6c1.5,1.1,2.8,2.6,3.8,4.3c1,1.7,1.7,3.7,2,5.9h-5.6C241.3,48.4,239.9,46.2,237.8,44.7
		z"/>
	<path class="st2" d="M259.7,51.5c0.8-2.7,2.1-5,3.8-7.1c1.7-2,3.8-3.7,6.3-4.9c2.5-1.2,5.5-1.8,8.8-1.8c3.3,0,6.3,0.6,8.8,1.8
		c2.5,1.2,4.6,2.9,6.3,4.9c1.7,2,3,4.4,3.8,7.1c0.8,2.7,1.3,5.4,1.3,8.3c0,2.9-0.4,5.6-1.3,8.3c-0.8,2.7-2.1,5-3.8,7.1
		c-1.7,2-3.8,3.7-6.3,4.9c-2.5,1.2-5.5,1.8-8.8,1.8c-3.3,0-6.3-0.6-8.8-1.8c-2.5-1.2-4.6-2.8-6.3-4.9c-1.7-2-3-4.4-3.8-7.1
		c-0.8-2.7-1.3-5.4-1.3-8.3C258.5,56.9,258.9,54.1,259.7,51.5z M264.9,66.1c0.6,2.1,1.4,3.9,2.6,5.6c1.2,1.7,2.7,3,4.5,4
		c1.8,1,4.1,1.5,6.6,1.5c2.6,0,4.8-0.5,6.6-1.5s3.4-2.3,4.5-4c1.2-1.7,2-3.5,2.6-5.6c0.6-2.1,0.8-4.2,0.8-6.3c0-2.1-0.3-4.2-0.8-6.3
		c-0.6-2.1-1.4-3.9-2.6-5.6c-1.2-1.7-2.7-3-4.5-4s-4.1-1.5-6.6-1.5c-2.6,0-4.8,0.5-6.6,1.5c-1.9,1-3.4,2.3-4.5,4
		c-1.2,1.7-2,3.5-2.6,5.6c-0.6,2.1-0.8,4.2-0.8,6.3C264.1,61.9,264.3,64,264.9,66.1z"/>
	<path class="st2" d="M331.4,38.7c4,0,7.2,1,9.4,3c2.3,2,3.4,4.7,3.4,8.1c0,2.6-0.6,4.8-1.7,6.7c-1.2,1.9-3,3.2-5.6,4v0.1
		c1.2,0.2,2.2,0.6,3,1.2c0.8,0.6,1.4,1.2,1.8,2c0.5,0.8,0.8,1.6,1,2.6c0.2,0.9,0.4,1.9,0.5,3c0.1,1,0.1,2.1,0.2,3.1
		c0,1.1,0.1,2.1,0.3,3.1c0.2,1,0.4,2,0.7,2.9c0.3,0.9,0.7,1.7,1.3,2.5h-6.3c-0.4-0.4-0.7-1-0.8-1.8c-0.1-0.7-0.2-1.6-0.3-2.5
		c0-0.9-0.1-1.9-0.1-3s-0.2-2.1-0.4-3.1c-0.2-1-0.4-2-0.6-2.9c-0.2-0.9-0.6-1.7-1.1-2.4c-0.5-0.7-1.2-1.2-2-1.7
		c-0.8-0.4-1.9-0.6-3.3-0.6h-13.7v18h-5.6V38.7H331.4z M332.6,57.8c1.2-0.2,2.2-0.6,3.1-1.2c0.9-0.6,1.6-1.3,2.1-2.3
		c0.5-1,0.8-2.2,0.8-3.8c0-2.1-0.6-3.9-1.8-5.2c-1.2-1.3-3.1-2-5.7-2h-13.9v14.7h11.7C330.2,58.1,331.4,58,332.6,57.8z"/>
	<path class="st2" d="M363.9,38.7l22.2,34.2h0.1V38.7h5.3v42.2h-6.1l-22-33.8h-0.1v33.8h-5.3V38.7H363.9z"/>
	<path class="st2" d="M435.6,38.7v4.7h-23.5v13.4H434v4.7h-21.9v14.6h23.7v4.7h-29.3V38.7H435.6z"/>
	<path class="st2" d="M468.3,38.7c4,0,7.2,1,9.4,3c2.3,2,3.4,4.7,3.4,8.1c0,2.6-0.6,4.8-1.7,6.7c-1.2,1.9-3,3.2-5.6,4v0.1
		c1.2,0.2,2.2,0.6,3,1.2c0.8,0.6,1.4,1.2,1.8,2c0.5,0.8,0.8,1.6,1,2.6c0.2,0.9,0.4,1.9,0.5,3c0.1,1,0.1,2.1,0.2,3.1
		c0,1.1,0.1,2.1,0.3,3.1c0.2,1,0.4,2,0.7,2.9c0.3,0.9,0.7,1.7,1.3,2.5h-6.3c-0.4-0.4-0.7-1-0.8-1.8c-0.1-0.7-0.2-1.6-0.3-2.5
		c0-0.9-0.1-1.9-0.1-3s-0.2-2.1-0.4-3.1c-0.2-1-0.4-2-0.6-2.9c-0.2-0.9-0.6-1.7-1.1-2.4c-0.5-0.7-1.2-1.2-2-1.7
		c-0.8-0.4-1.9-0.6-3.3-0.6h-13.7v18h-5.6V38.7H468.3z M469.5,57.8c1.2-0.2,2.2-0.6,3.1-1.2c0.9-0.6,1.6-1.3,2.1-2.3
		c0.5-1,0.8-2.2,0.8-3.8c0-2.1-0.6-3.9-1.8-5.2c-1.2-1.3-3.1-2-5.7-2h-13.9v14.7h11.7C467.1,58.1,468.3,58,469.5,57.8z"/>
	<path class="st2" d="M515.9,44.5c-1.9-1.4-4.3-2-7.2-2c-1.2,0-2.3,0.1-3.5,0.4s-2.2,0.6-3,1.2c-0.9,0.6-1.6,1.3-2.1,2.2
		c-0.5,0.9-0.8,2.1-0.8,3.5c0,1.3,0.4,2.4,1.2,3.2c0.8,0.8,1.8,1.5,3.1,2c1.3,0.5,2.7,0.9,4.3,1.3c1.6,0.3,3.3,0.7,4.9,1.1
		c1.7,0.4,3.3,0.9,4.9,1.4c1.6,0.5,3.1,1.3,4.3,2.2c1.3,0.9,2.3,2,3.1,3.4c0.8,1.4,1.2,3.1,1.2,5.2c0,2.2-0.5,4.2-1.5,5.8
		c-1,1.6-2.3,2.9-3.9,3.9c-1.6,1-3.3,1.7-5.3,2.2c-1.9,0.5-3.9,0.7-5.8,0.7c-2.4,0-4.6-0.3-6.7-0.9c-2.1-0.6-4-1.5-5.6-2.7
		c-1.6-1.2-2.9-2.7-3.8-4.6c-0.9-1.9-1.4-4.1-1.4-6.6h5.3c0,1.8,0.3,3.3,1,4.6c0.7,1.3,1.6,2.3,2.7,3.2c1.1,0.8,2.4,1.4,3.9,1.8
		c1.5,0.4,3,0.6,4.6,0.6c1.3,0,2.5-0.1,3.8-0.4c1.3-0.2,2.4-0.6,3.5-1.2c1-0.6,1.9-1.3,2.5-2.3c0.6-1,0.9-2.2,0.9-3.8
		c0-1.5-0.4-2.6-1.2-3.5c-0.8-0.9-1.8-1.6-3.1-2.2c-1.3-0.6-2.7-1-4.3-1.4c-1.6-0.4-3.3-0.7-4.9-1.1c-1.7-0.4-3.3-0.8-4.9-1.3
		c-1.6-0.5-3.1-1.1-4.3-1.9c-1.3-0.8-2.3-1.9-3.1-3.1c-0.8-1.3-1.2-2.9-1.2-4.8c0-2.1,0.4-4,1.3-5.5c0.9-1.6,2-2.8,3.5-3.8
		c1.4-1,3.1-1.8,4.9-2.2c1.8-0.5,3.7-0.7,5.6-0.7c2.2,0,4.2,0.3,6,0.8c1.8,0.5,3.5,1.3,4.9,2.4c1.4,1.1,2.5,2.5,3.3,4.2
		c0.8,1.7,1.2,3.7,1.3,6h-5.3C518.9,48,517.8,45.8,515.9,44.5z"/>
</g>
</svg>
