<svg xmlns="http://www.w3.org/2000/svg" width="499.51" height="44.11" viewBox="0 0 499.51 44.11">
  <title>white-text</title>
  <g>
    <path d="M55.36,227.7v4.72H33.27v13.4H52.64v4.72H33.27v19.31H27.66V227.7H55.36Z" transform="translate(-27.66 -226.69)" style="fill: #fff"/>
    <path d="M66.37,240.48a20.9,20.9,0,0,1,3.81-7.06,18.6,18.6,0,0,1,6.32-4.9,20,20,0,0,1,8.8-1.83,20,20,0,0,1,8.8,1.83,18.61,18.61,0,0,1,6.32,4.9,20.94,20.94,0,0,1,3.81,7.06,27.74,27.74,0,0,1,0,16.59,20.93,20.93,0,0,1-3.81,7.06A18.28,18.28,0,0,1,94.1,269a20.24,20.24,0,0,1-8.8,1.8,20.24,20.24,0,0,1-8.8-1.8,18.26,18.26,0,0,1-6.32-4.87,20.9,20.9,0,0,1-3.81-7.06A27.74,27.74,0,0,1,66.37,240.48Zm5.17,14.59a17.07,17.07,0,0,0,2.6,5.58,13.28,13.28,0,0,0,4.55,4,15.28,15.28,0,0,0,13.23,0,13.29,13.29,0,0,0,4.55-4,17.09,17.09,0,0,0,2.6-5.58,24.33,24.33,0,0,0,0-12.58,17.09,17.09,0,0,0-2.6-5.58,13.29,13.29,0,0,0-4.55-4,15.28,15.28,0,0,0-13.23,0,13.28,13.28,0,0,0-4.55,4,17.07,17.07,0,0,0-2.6,5.58A24.33,24.33,0,0,0,71.54,255.07Z" transform="translate(-27.66 -226.69)" style="fill: #fff"/>
    <path d="M147.6,266.76q-4.31,4-12.28,4-8.15,0-12.73-3.87T118,254.63V227.7h5.61v26.93q0,5.67,3,8.59t8.68,2.92q5.37,0,8.18-2.92t2.81-8.59V227.7h5.61v26.93Q151.91,262.72,147.6,266.76Z" transform="translate(-27.66 -226.69)" style="fill: #fff"/>
    <path d="M186.63,227.7q6,0,9.42,3a10.16,10.16,0,0,1,3.4,8.09,12.8,12.8,0,0,1-1.74,6.73,9,9,0,0,1-5.58,4v0.12a7.51,7.51,0,0,1,3,1.18,6.49,6.49,0,0,1,1.83,2,9,9,0,0,1,1,2.57,27.34,27.34,0,0,1,.5,3q0.12,1.54.18,3.13a26.85,26.85,0,0,0,.3,3.13,19.12,19.12,0,0,0,.68,2.92,7.2,7.2,0,0,0,1.33,2.45h-6.26a3.51,3.51,0,0,1-.8-1.77,18,18,0,0,1-.27-2.51q-0.06-1.39-.12-3a20.69,20.69,0,0,0-.35-3.13q-0.24-1.53-.59-2.92a6.87,6.87,0,0,0-1.12-2.42,5.55,5.55,0,0,0-2-1.65,7.45,7.45,0,0,0-3.31-.62H172.4v18h-5.61V227.7h19.84Zm1.18,19.13a8.11,8.11,0,0,0,3.1-1.15,6.29,6.29,0,0,0,2.13-2.3,7.73,7.73,0,0,0,.8-3.75,7.56,7.56,0,0,0-1.77-5.2q-1.77-2-5.73-2H172.4v14.7h11.69A22.57,22.57,0,0,0,187.81,246.83Z" transform="translate(-27.66 -226.69)" style="fill: #fff"/>
    <path d="M238.62,233.66a13,13,0,0,0-7.65-2.24,13.7,13.7,0,0,0-6.47,1.42,12.74,12.74,0,0,0-4.43,3.81,16.42,16.42,0,0,0-2.57,5.46,24.4,24.4,0,0,0-.83,6.38,27.29,27.29,0,0,0,.83,6.82,16.29,16.29,0,0,0,2.57,5.61,12.67,12.67,0,0,0,4.46,3.81,13.88,13.88,0,0,0,6.5,1.42,12.51,12.51,0,0,0,4.93-.92,11.15,11.15,0,0,0,3.72-2.54,11.67,11.67,0,0,0,2.45-3.87A16.07,16.07,0,0,0,243.2,254h5.61q-0.83,8-5.49,12.4t-12.76,4.43a20.32,20.32,0,0,1-8.56-1.68,16.8,16.8,0,0,1-6.08-4.64,19.88,19.88,0,0,1-3.63-7,29.71,29.71,0,0,1-1.21-8.62,28.13,28.13,0,0,1,1.3-8.65,20.83,20.83,0,0,1,3.81-7.06,17.75,17.75,0,0,1,6.26-4.75,20.19,20.19,0,0,1,8.59-1.74,21.68,21.68,0,0,1,6.26.89,16.85,16.85,0,0,1,5.26,2.6,14.63,14.63,0,0,1,3.84,4.28,15.72,15.72,0,0,1,2,5.94h-5.61A10.44,10.44,0,0,0,238.62,233.66Z" transform="translate(-27.66 -226.69)" style="fill: #fff"/>
    <path d="M260.59,240.48a20.89,20.89,0,0,1,3.81-7.06,18.6,18.6,0,0,1,6.32-4.9,22.06,22.06,0,0,1,17.6,0,18.62,18.62,0,0,1,6.32,4.9,20.92,20.92,0,0,1,3.81,7.06,27.74,27.74,0,0,1,0,16.59,20.91,20.91,0,0,1-3.81,7.06,18.28,18.28,0,0,1-6.32,4.87,22.39,22.39,0,0,1-17.6,0,18.26,18.26,0,0,1-6.32-4.87,20.88,20.88,0,0,1-3.81-7.06A27.74,27.74,0,0,1,260.59,240.48Zm5.17,14.59a17.08,17.08,0,0,0,2.6,5.58,13.28,13.28,0,0,0,4.55,4,15.27,15.27,0,0,0,13.23,0,13.28,13.28,0,0,0,4.55-4,17.08,17.08,0,0,0,2.6-5.58,24.32,24.32,0,0,0,0-12.58,17.08,17.08,0,0,0-2.6-5.58,13.28,13.28,0,0,0-4.55-4,15.27,15.27,0,0,0-13.23,0,13.28,13.28,0,0,0-4.55,4,17.08,17.08,0,0,0-2.6,5.58A24.32,24.32,0,0,0,265.76,255.07Z" transform="translate(-27.66 -226.69)" style="fill: #fff"/>
    <path d="M332.31,227.7q6,0,9.42,3a10.17,10.17,0,0,1,3.4,8.09,12.8,12.8,0,0,1-1.74,6.73,9,9,0,0,1-5.58,4v0.12a7.52,7.52,0,0,1,3,1.18,6.49,6.49,0,0,1,1.83,2,9,9,0,0,1,1,2.57,27.34,27.34,0,0,1,.5,3q0.12,1.54.18,3.13a27.17,27.17,0,0,0,.29,3.13,19.07,19.07,0,0,0,.68,2.92,7.21,7.21,0,0,0,1.33,2.45h-6.26a3.51,3.51,0,0,1-.8-1.77,18.16,18.16,0,0,1-.27-2.51q-0.06-1.39-.12-3a20.5,20.5,0,0,0-.35-3.13q-0.24-1.53-.59-2.92a6.88,6.88,0,0,0-1.12-2.42,5.56,5.56,0,0,0-2-1.65,7.45,7.45,0,0,0-3.31-.62h-13.7v18h-5.61V227.7h19.84Zm1.18,19.13a8.11,8.11,0,0,0,3.1-1.15,6.3,6.3,0,0,0,2.13-2.3,7.74,7.74,0,0,0,.8-3.75,7.57,7.57,0,0,0-1.77-5.2q-1.77-2-5.73-2H318.07v14.7h11.69A22.56,22.56,0,0,0,333.49,246.83Z" transform="translate(-27.66 -226.69)" style="fill: #fff"/>
    <path d="M364.73,227.7l22.2,34.19H387V227.7h5.32v42.16h-6.14l-22-33.84h-0.12v33.84h-5.31V227.7h6Z" transform="translate(-27.66 -226.69)" style="fill: #fff"/>
    <path d="M436.47,227.7v4.72H413v13.4h21.91v4.72H413v14.59h23.68v4.72H407.36V227.7h29.11Z" transform="translate(-27.66 -226.69)" style="fill: #fff"/>
    <path d="M469.19,227.7q6,0,9.42,3a10.17,10.17,0,0,1,3.4,8.09,12.8,12.8,0,0,1-1.74,6.73,9,9,0,0,1-5.58,4v0.12a7.52,7.52,0,0,1,3,1.18,6.49,6.49,0,0,1,1.83,2,9,9,0,0,1,1,2.57,27.34,27.34,0,0,1,.5,3q0.12,1.54.18,3.13a27.17,27.17,0,0,0,.29,3.13,19.07,19.07,0,0,0,.68,2.92,7.21,7.21,0,0,0,1.33,2.45h-6.26a3.51,3.51,0,0,1-.8-1.77,18.16,18.16,0,0,1-.27-2.51q-0.06-1.39-.12-3a20.5,20.5,0,0,0-.35-3.13q-0.24-1.53-.59-2.92a6.88,6.88,0,0,0-1.12-2.42,5.56,5.56,0,0,0-2-1.65,7.45,7.45,0,0,0-3.31-.62H455v18h-5.61V227.7h19.84Zm1.18,19.13a8.11,8.11,0,0,0,3.1-1.15,6.3,6.3,0,0,0,2.13-2.3,7.74,7.74,0,0,0,.8-3.75,7.57,7.57,0,0,0-1.77-5.2q-1.77-2-5.73-2H455v14.7h11.69A22.56,22.56,0,0,0,470.37,246.83Z" transform="translate(-27.66 -226.69)" style="fill: #fff"/>
    <path d="M516.81,233.46a11.9,11.9,0,0,0-7.17-2,17.15,17.15,0,0,0-3.48.35,9.25,9.25,0,0,0-3,1.18,6.21,6.21,0,0,0-2.13,2.21,6.85,6.85,0,0,0-.8,3.45,4.39,4.39,0,0,0,1.15,3.16,8.52,8.52,0,0,0,3.07,2,25.68,25.68,0,0,0,4.34,1.27q2.42,0.5,4.93,1.09t4.93,1.39a16.29,16.29,0,0,1,4.34,2.16,10.27,10.27,0,0,1,3.07,3.42,12,12,0,0,1-.35,11,12.41,12.41,0,0,1-3.87,3.9,16.84,16.84,0,0,1-5.29,2.18,25.68,25.68,0,0,1-5.82.68,24.73,24.73,0,0,1-6.7-.89,16.53,16.53,0,0,1-5.55-2.69,12.73,12.73,0,0,1-3.78-4.61,14.83,14.83,0,0,1-1.39-6.64h5.31a9.51,9.51,0,0,0,1,4.58,9.39,9.39,0,0,0,2.72,3.16,11.45,11.45,0,0,0,3.93,1.83,18,18,0,0,0,4.61.59,20.93,20.93,0,0,0,3.81-.35,11.2,11.2,0,0,0,3.45-1.21,6.48,6.48,0,0,0,3.43-6.11,5.29,5.29,0,0,0-1.15-3.54,8.48,8.48,0,0,0-3.07-2.21,22.54,22.54,0,0,0-4.34-1.39l-4.93-1.09q-2.51-.56-4.93-1.3A17.81,17.81,0,0,1,498.8,247a9.32,9.32,0,0,1-3.07-3.13,9.22,9.22,0,0,1-1.15-4.81,11.17,11.17,0,0,1,1.3-5.52,11.34,11.34,0,0,1,3.45-3.84,15.52,15.52,0,0,1,4.9-2.24,21.65,21.65,0,0,1,5.64-.74,22.59,22.59,0,0,1,6,.77,13.66,13.66,0,0,1,4.87,2.42,11.69,11.69,0,0,1,3.31,4.16,14.9,14.9,0,0,1,1.33,6h-5.31Q519.61,235.49,516.81,233.46Z" transform="translate(-27.66 -226.69)" style="fill: #fff"/>
  </g>
</svg>
